<svg width="26" height="23" viewBox="0 0 26 23" fill="none" xmlns="http://www.w3.org/2000/svg">
<path id="Vector" d="M19.4022 9.75127L12.3491 2.92762C12.0239 2.60181 11.8439 2.16544 11.848 1.71249C11.852 1.25955 12.0398 0.826268 12.3709 0.505975C12.7019 0.185681 13.1498 0.00400128 13.618 6.53042e-05C14.0861 -0.00387068 14.5372 0.170252 14.8739 0.484931L24.975 10.2574C25.1414 10.4175 25.2734 10.6078 25.3635 10.8174C25.4536 11.027 25.5 11.2518 25.5 11.4788C25.5 11.7058 25.4536 11.9305 25.3635 12.1402C25.2734 12.3498 25.1414 12.5401 24.975 12.7001L14.8739 22.4726C14.7092 22.6376 14.5122 22.7692 14.2943 22.8597C14.0765 22.9503 13.8422 22.9979 13.6051 22.9999C13.368 23.0019 13.1329 22.9582 12.9135 22.8714C12.694 22.7845 12.4946 22.6562 12.327 22.494C12.1593 22.3318 12.0268 22.1389 11.937 21.9266C11.8472 21.7143 11.802 21.4869 11.8041 21.2575C11.8061 21.0281 11.8554 20.8014 11.949 20.5907C12.0426 20.3799 12.1786 20.1893 12.3491 20.0299L19.4022 13.2063H2.28558C1.81202 13.2063 1.35785 13.0243 1.02298 12.7003C0.688123 12.3763 0.5 11.9369 0.5 11.4788C0.5 11.0206 0.688123 10.5812 1.02298 10.2572C1.35785 9.93327 1.81202 9.75127 2.28558 9.75127H19.4022Z" fill="black"/>
</svg>
