<svg width="39" height="39" viewBox="0 0 39 39" fill="none" xmlns="http://www.w3.org/2000/svg">
<g id="bi:currency-dollar">
<path id="Vector" d="M9.75 26.2787C10.1108 30.342 13.4379 33.2256 18.5031 33.5985V36.5625H21.0454V33.5985C26.5785 33.1622 30.0105 30.0934 30.0105 25.5548C30.0105 21.6791 27.7022 19.4366 22.8053 18.174L21.0454 17.7182V8.45081C23.7802 8.71894 25.6254 10.1912 26.091 12.3898H29.6741C29.2695 8.48981 25.9204 5.69156 21.0454 5.382V2.4375H18.5031V5.44294C13.7768 6.00356 10.5324 9.03094 10.5324 13.1357C10.5324 16.6798 12.8871 19.188 17.0186 20.2459L18.5055 20.6408V30.4663C15.7048 30.0519 13.7768 28.5163 13.3112 26.2787H9.75ZM18.0156 16.9284C15.4732 16.2874 14.1156 14.9175 14.1156 12.9894C14.1156 10.6884 15.8316 8.9895 18.5031 8.53369V17.0527L18.0156 16.9284ZM21.8936 21.4914C25.0307 22.2788 26.4079 23.5853 26.4079 25.8034C26.4079 28.4773 24.3945 30.2591 21.0454 30.5297V21.2794L21.8936 21.4914Z" fill="black"/>
</g>
</svg>
