<svg width="27" height="27" viewBox="0 0 27 27" fill="none" xmlns="http://www.w3.org/2000/svg">
<path d="M11.4806 1.09353C12.7805 0.580477 14.2195 0.580477 15.5194 1.09353L24.8231 4.76465C25.3535 4.97423 25.8096 5.3438 26.1313 5.82466C26.4529 6.30552 26.6251 6.8751 26.625 7.45834V20.2072C26.6251 20.7905 26.4529 21.36 26.1313 21.8409C25.8096 22.3218 25.3535 22.6913 24.8231 22.9009L15.5194 26.574C14.2195 27.087 12.7805 27.087 11.4806 26.574L2.17875 22.9009C1.64799 22.6916 1.19151 22.3222 0.869496 21.8413C0.547486 21.3604 0.375075 20.7907 0.375 20.2072V7.45834C0.375075 6.87487 0.547486 6.30513 0.869496 5.82424C1.19151 5.34336 1.64799 4.97392 2.17875 4.76465L11.4806 1.09353ZM14.8463 2.88868C13.9797 2.54665 13.0203 2.54665 12.1538 2.88868L9.55875 3.91421L20.04 7.98554L23.6925 6.38087L14.8463 2.88868ZM24.75 8.0067L14.4375 12.5456V24.9135C14.575 24.8776 14.7113 24.8327 14.8463 24.7788L24.15 21.1077C24.3268 21.0377 24.4787 20.9143 24.5859 20.7539C24.693 20.5935 24.7502 20.4036 24.75 20.2091V8.0067ZM12.5625 24.9116V12.5456L2.25 8.00863V20.2072C2.2498 20.4017 2.30703 20.5916 2.41414 20.752C2.52125 20.9124 2.67321 21.0358 2.85 21.1058L12.1538 24.7769C12.2875 24.8307 12.4237 24.8756 12.5625 24.9116ZM3.3075 6.38087L13.5 10.8639L17.5575 9.07841L6.93188 4.94936L3.3075 6.38087Z" fill="white"/>
</svg>
