<svg width="39" height="39" viewBox="0 0 39 39" fill="none" xmlns="http://www.w3.org/2000/svg">
<g id="fluent:box-search-20-regular">
<path id="Vector" d="M16.965 4.83603C18.5923 4.18503 20.4077 4.18503 22.035 4.83603L33.2612 9.32883C34.3727 9.77148 35.1 10.8479 35.1 12.0432V26.9529C35.1001 27.5376 34.925 28.1089 34.5972 28.5931C34.2694 29.0773 33.804 29.4522 33.2612 29.6693L22.035 34.1601C21.111 34.5297 20.1173 34.6928 19.1237 34.6379C18.9932 34.4065 18.8318 34.1939 18.644 34.0061L18.525 33.8891V17.2341L5.85 12.1641V17.6046C5.18518 17.678 4.53093 17.8272 3.9 18.0492V12.0432C3.90029 11.4589 4.07561 10.888 4.40336 10.4042C4.73111 9.92037 5.19627 9.54582 5.73885 9.32883L16.965 4.83603ZM21.3116 6.64953C20.1493 6.1846 18.8527 6.1846 17.6904 6.64953L15.0579 7.70253L27.0563 12.4995L31.5003 10.725L21.3116 6.64953ZM24.4316 13.5525L12.4313 8.74968L7.4997 10.7231L19.5 15.524L24.4316 13.5525ZM33.15 12.1622L20.475 17.2322V32.5982C20.761 32.5397 21.0392 32.4565 21.3096 32.3486L32.5377 27.8577C32.7188 27.7852 32.8739 27.66 32.983 27.4983C33.0922 27.3367 33.1503 27.146 33.15 26.951V12.1622ZM6.825 33.15C8.3577 33.15 9.7734 32.643 10.9122 31.7909L15.8847 36.7634C15.9752 36.854 16.0827 36.926 16.201 36.9751C16.3194 37.0242 16.4462 37.0495 16.5743 37.0496C16.7024 37.0497 16.8293 37.0245 16.9477 36.9756C17.0661 36.9267 17.1737 36.8549 17.2643 36.7644C17.355 36.6738 17.4269 36.5663 17.476 36.448C17.5251 36.3297 17.5505 36.2028 17.5505 36.0747C17.5506 35.9466 17.5255 35.8198 17.4765 35.7014C17.4276 35.583 17.3558 35.4754 17.2653 35.3847L12.2928 30.4122C13.2132 29.1813 13.6912 27.6758 13.6494 26.1394C13.6076 24.603 13.0485 23.1257 12.0625 21.9467C11.0765 20.7677 9.72143 19.956 8.21667 19.643C6.7119 19.3301 5.14555 19.5342 3.77124 20.2223C2.39694 20.9104 1.29513 22.0423 0.644221 23.4346C-0.00668438 24.827 -0.168577 26.3982 0.184757 27.894C0.538091 29.3898 1.38596 30.7226 2.59109 31.6765C3.79622 32.6304 5.28804 33.1496 6.825 33.15ZM6.825 31.2C5.53207 31.2 4.29209 30.6864 3.37786 29.7722C2.46362 28.8579 1.95 27.618 1.95 26.325C1.95 25.0321 2.46362 23.7921 3.37786 22.8779C4.29209 21.9636 5.53207 21.45 6.825 21.45C8.11793 21.45 9.35791 21.9636 10.2721 22.8779C11.1864 23.7921 11.7 25.0321 11.7 26.325C11.7 27.618 11.1864 28.8579 10.2721 29.7722C9.35791 30.6864 8.11793 31.2 6.825 31.2Z" fill="black"/>
</g>
</svg>
