<svg width="39" height="39" viewBox="0 0 39 39" fill="none" xmlns="http://www.w3.org/2000/svg">
<g id="hugeicons:shipping-truck-02">
<g id="Group">
<path id="Vector" d="M31.6875 28.4375C31.6875 29.5149 31.2595 30.5483 30.4976 31.3101C29.7358 32.072 28.7024 32.5 27.625 32.5C26.5476 32.5 25.5142 32.072 24.7524 31.3101C23.9905 30.5483 23.5625 29.5149 23.5625 28.4375C23.5625 27.3601 23.9905 26.3267 24.7524 25.5649C25.5142 24.803 26.5476 24.375 27.625 24.375C28.7024 24.375 29.7358 24.803 30.4976 25.5649C31.2595 26.3267 31.6875 27.3601 31.6875 28.4375ZM15.4375 28.4375C15.4375 29.5149 15.0095 30.5483 14.2476 31.3101C13.4858 32.072 12.4524 32.5 11.375 32.5C10.2976 32.5 9.26425 32.072 8.50238 31.3101C7.74051 30.5483 7.3125 29.5149 7.3125 28.4375C7.3125 27.3601 7.74051 26.3267 8.50238 25.5649C9.26425 24.803 10.2976 24.375 11.375 24.375C12.4524 24.375 13.4858 24.803 14.2476 25.5649C15.0095 26.3267 15.4375 27.3601 15.4375 28.4375Z" stroke="black" stroke-width="2.4375" stroke-linecap="round" stroke-linejoin="round"/>
<path id="Vector_2" d="M23.5625 28.4375H15.4375M24.375 25.1875V11.375C24.375 9.07725 24.375 7.92838 23.66 7.215C22.9483 6.5 21.7994 6.5 19.5 6.5H8.125C5.82725 6.5 4.67838 6.5 3.965 7.215C3.25 7.92675 3.25 9.07563 3.25 11.375V24.375C3.25 25.8944 3.25 26.6533 3.57662 27.2188C3.79055 27.5893 4.09823 27.8969 4.46875 28.1109C5.03425 28.4375 5.79312 28.4375 7.3125 28.4375M25.1875 10.5625H28.1141C29.4629 10.5625 30.1372 10.5625 30.6962 10.8794C31.2552 11.1946 31.6014 11.7731 32.2953 12.9301L35.0561 17.5289C35.4006 18.1041 35.5729 18.3934 35.6622 18.7119C35.75 19.032 35.75 19.3668 35.75 20.0379V24.375C35.75 25.8944 35.75 26.6533 35.4234 27.2188C35.2094 27.5893 34.9018 27.8969 34.5312 28.1109C33.9658 28.4375 33.2069 28.4375 31.6875 28.4375" stroke="black" stroke-width="2.4375" stroke-linecap="round" stroke-linejoin="round"/>
</g>
</g>
</svg>
