<svg width="39" height="39" viewBox="0 0 39 39" fill="none" xmlns="http://www.w3.org/2000/svg">
<g id="hugeicons:truck-return">
<g id="Group">
<path id="Vector" d="M27.625 32.5C28.487 32.5 29.3136 32.1576 29.9231 31.5481C30.5326 30.9386 30.875 30.112 30.875 29.25C30.875 28.388 30.5326 27.5614 29.9231 26.9519C29.3136 26.3424 28.487 26 27.625 26C26.763 26 25.9364 26.3424 25.3269 26.9519C24.7174 27.5614 24.375 28.388 24.375 29.25C24.375 30.112 24.7174 30.9386 25.3269 31.5481C25.9364 32.1576 26.763 32.5 27.625 32.5ZM11.375 32.5C12.237 32.5 13.0636 32.1576 13.6731 31.5481C14.2826 30.9386 14.625 30.112 14.625 29.25C14.625 28.388 14.2826 27.5614 13.6731 26.9519C13.0636 26.3424 12.237 26 11.375 26C10.513 26 9.6864 26.3424 9.0769 26.9519C8.46741 27.5614 8.125 28.388 8.125 29.25C8.125 30.112 8.46741 30.9386 9.0769 31.5481C9.6864 32.1576 10.513 32.5 11.375 32.5Z" stroke="black" stroke-width="1.5" stroke-linecap="round" stroke-linejoin="round"/>
<path id="Vector_2" d="M30.875 17.875H35.75M35.75 17.875V21.125C35.75 24.9551 35.75 26.8694 34.5605 28.0605C33.7691 28.8519 32.6576 29.1168 30.875 29.2045M35.75 17.875L33.6765 14.0238C32.5553 11.9405 31.9946 10.8989 31.031 10.3253C30.069 9.75 28.8876 9.75 26.5216 9.75H23.5625M8.125 29.2045C6.34237 29.1168 5.2325 28.8519 4.4395 28.0605C3.25 26.8694 3.25 24.9551 3.25 21.125V14.625C3.25 10.7949 3.25 8.879 4.4395 7.6895C5.629 6.5 7.54487 6.5 11.375 6.5H16.7375C18.5526 6.5 19.4594 6.5 20.1939 6.73887C20.9255 6.97662 21.5905 7.38412 22.1344 7.92808C22.6784 8.47204 23.0859 9.13701 23.3236 9.86862C23.5625 10.6031 23.5625 11.5099 23.5625 13.325C23.5625 15.3075 23.5625 16.3004 23.0198 16.9715C22.9125 17.1037 22.7923 17.2239 22.659 17.3323C21.9879 17.875 20.9966 17.875 19.0125 17.875H13M24.375 29.25H14.625" stroke="black" stroke-width="1.5" stroke-linecap="round" stroke-linejoin="round"/>
<path id="Vector_3" d="M16.25 21.125C16.25 21.125 15.158 20.2215 14.1976 19.3635C13.52 18.8175 13 18.3511 13 17.8831C13 17.4688 13.4063 17.0836 14.066 16.4791C15.002 15.7007 16.25 14.625 16.25 14.625" stroke="black" stroke-width="1.5" stroke-linecap="round" stroke-linejoin="round"/>
</g>
</g>
</svg>
