<svg width="25" height="20" viewBox="0 0 25 20" fill="none" xmlns="http://www.w3.org/2000/svg">
<g id="Group">
<path id="Vector" d="M20.8281 15.6406C20.8281 16.3658 20.54 17.0613 20.0272 17.5741C19.5144 18.0869 18.8189 18.375 18.0937 18.375C17.3685 18.375 16.673 18.0869 16.1603 17.5741C15.6475 17.0613 15.3594 16.3658 15.3594 15.6406C15.3594 14.9154 15.6475 14.2199 16.1603 13.7071C16.673 13.1943 17.3685 12.9062 18.0937 12.9062C18.8189 12.9062 19.5144 13.1943 20.0272 13.7071C20.54 14.2199 20.8281 14.9154 20.8281 15.6406ZM9.89062 15.6406C9.89062 16.3658 9.60254 17.0613 9.08974 17.5741C8.57695 18.0869 7.88145 18.375 7.15625 18.375C6.43105 18.375 5.73555 18.0869 5.22275 17.5741C4.70996 17.0613 4.42188 16.3658 4.42188 15.6406C4.42188 14.9154 4.70996 14.2199 5.22275 13.7071C5.73555 13.1943 6.43105 12.9062 7.15625 12.9062C7.88145 12.9062 8.57695 13.1943 9.08974 13.7071C9.60254 14.2199 9.89062 14.9154 9.89062 15.6406Z" stroke="#7D7D7D" stroke-width="1.5" stroke-linecap="round" stroke-linejoin="round"/>
<path id="Vector_2" d="M15.3594 15.6406H9.89062M15.9062 13.4531V4.15625C15.9062 2.60969 15.9062 1.83641 15.425 1.35625C14.9459 0.875 14.1727 0.875 12.625 0.875H4.96875C3.42219 0.875 2.64891 0.875 2.16875 1.35625C1.6875 1.83531 1.6875 2.60859 1.6875 4.15625V12.9062C1.6875 13.9289 1.6875 14.4397 1.90734 14.8203C2.05133 15.0697 2.25843 15.2768 2.50781 15.4208C2.88844 15.6406 3.39922 15.6406 4.42187 15.6406M16.4531 3.60937H18.423C19.3308 3.60937 19.7847 3.60937 20.1609 3.82266C20.5372 4.03484 20.7702 4.42422 21.2372 5.20297L23.0955 8.29828C23.3273 8.68547 23.4433 8.88016 23.5034 9.09453C23.5625 9.31 23.5625 9.53531 23.5625 9.98703V12.9062C23.5625 13.9289 23.5625 14.4397 23.3427 14.8203C23.1987 15.0697 22.9916 15.2768 22.7422 15.4208C22.3616 15.6406 21.8508 15.6406 20.8281 15.6406" stroke="#7D7D7D" stroke-width="1.5" stroke-linecap="round" stroke-linejoin="round"/>
</g>
</svg>
