<svg width="19" height="19" viewBox="0 0 19 19" fill="none" xmlns="http://www.w3.org/2000/svg">
<g id="hugeicons:shipping-truck-02">
<g id="Group">
<path id="Vector" d="M15.4375 13.8542C15.4375 14.3791 15.229 14.8825 14.8578 15.2536C14.4867 15.6248 13.9832 15.8333 13.4583 15.8333C12.9334 15.8333 12.43 15.6248 12.0589 15.2536C11.6877 14.8825 11.4792 14.3791 11.4792 13.8542C11.4792 13.3293 11.6877 12.8259 12.0589 12.4547C12.43 12.0835 12.9334 11.875 13.4583 11.875C13.9832 11.875 14.4867 12.0835 14.8578 12.4547C15.229 12.8259 15.4375 13.3293 15.4375 13.8542ZM7.52083 13.8542C7.52083 14.3791 7.31231 14.8825 6.94115 15.2536C6.56998 15.6248 6.06657 15.8333 5.54167 15.8333C5.01676 15.8333 4.51335 15.6248 4.14218 15.2536C3.77102 14.8825 3.5625 14.3791 3.5625 13.8542C3.5625 13.3293 3.77102 12.8259 4.14218 12.4547C4.51335 12.0835 5.01676 11.875 5.54167 11.875C6.06657 11.875 6.56998 12.0835 6.94115 12.4547C7.31231 12.8259 7.52083 13.3293 7.52083 13.8542Z" stroke="black" stroke-width="2.4375" stroke-linecap="round" stroke-linejoin="round"/>
<path id="Vector_2" d="M11.4791 13.8542H7.52081M11.875 12.2709V5.54175C11.875 4.42233 11.875 3.86262 11.5266 3.51508C11.1799 3.16675 10.6202 3.16675 9.49998 3.16675H3.95831C2.8389 3.16675 2.27919 3.16675 1.93165 3.51508C1.58331 3.86183 1.58331 4.42154 1.58331 5.54175V11.8751C1.58331 12.6153 1.58331 12.985 1.74244 13.2605C1.84666 13.441 1.99656 13.5909 2.17706 13.6951C2.45256 13.8542 2.82227 13.8542 3.56248 13.8542M12.2708 5.14591H13.6966C14.3537 5.14591 14.6822 5.14591 14.9546 5.30029C15.2269 5.45387 15.3955 5.73571 15.7336 6.29937L17.0786 8.53979C17.2464 8.82004 17.3304 8.96096 17.3739 9.11612C17.4166 9.27208 17.4166 9.43517 17.4166 9.76212V11.8751C17.4166 12.6153 17.4166 12.985 17.2575 13.2605C17.1533 13.441 17.0034 13.5909 16.8229 13.6951C16.5474 13.8542 16.1777 13.8542 15.4375 13.8542" stroke="black" stroke-width="2.4375" stroke-linecap="round" stroke-linejoin="round"/>
</g>
</g>
</svg>
