<svg width="24" height="24" viewBox="0 0 24 24" fill="none" xmlns="http://www.w3.org/2000/svg">
<g id="mage:box-3d-question-mark">
<g id="Group">
<path id="Vector" d="M20.935 11.009V8.793C20.9363 8.26109 20.7952 7.73854 20.5263 7.27958C20.2574 6.82062 19.8706 6.442 19.406 6.183L13.449 2.876C13.0059 2.62942 12.5071 2.5 12 2.5C11.4929 2.5 10.9942 2.62942 10.551 2.876L4.59401 6.182C4.12926 6.44108 3.74236 6.81986 3.47348 7.27901C3.2046 7.73816 3.06357 8.26092 3.06501 8.793V15.207C3.06374 15.7389 3.20487 16.2615 3.47374 16.7204C3.7426 17.1794 4.12941 17.558 4.59401 17.817L10.551 21.124C10.9942 21.3706 11.4929 21.5 12 21.5C12.5071 21.5 13.0059 21.3706 13.449 21.124L15.971 19.724" stroke="black" stroke-width="1.5" stroke-linecap="round" stroke-linejoin="round"/>
<path id="Vector_2" d="M20.33 6.99597L12 12M12 12L3.67004 6.99597M12 12V21.49" stroke="black" stroke-width="1.5" stroke-linecap="round" stroke-linejoin="round"/>
<path id="Vector_3" d="M18.15 14.714C18.2733 14.4443 18.4831 14.2236 18.7462 14.0868C19.0092 13.95 19.3105 13.905 19.602 13.959C19.8019 13.9894 19.9918 14.0663 20.1565 14.1836C20.3211 14.3008 20.4559 14.4551 20.55 14.634C20.6179 14.777 20.6548 14.9327 20.6581 15.0909C20.6615 15.2491 20.6313 15.4063 20.5695 15.552C20.5077 15.6977 20.4157 15.8286 20.2996 15.9362C20.1836 16.0437 20.046 16.1255 19.896 16.176C19.7434 16.2344 19.6114 16.3365 19.5166 16.4696C19.4218 16.6026 19.3684 16.7607 19.363 16.924V17.233" stroke="black" stroke-width="1.5" stroke-miterlimit="10" stroke-linecap="round"/>
<path id="Vector_4" d="M19.34 18.937H19.342" stroke="black" stroke-width="1.5" stroke-linecap="round" stroke-linejoin="round"/>
</g>
</g>
</svg>
