<svg width="27" height="27" viewBox="0 0 27 27" fill="none" xmlns="http://www.w3.org/2000/svg">
<g id="uim:process">
<path id="Vector" d="M9.68359 9.79688H4.76172C4.47164 9.79688 4.19344 9.68164 3.98832 9.47652C3.7832 9.2714 3.66797 8.99321 3.66797 8.70312V3.78125C3.66797 3.49117 3.7832 3.21297 3.98832 3.00785C4.19344 2.80273 4.47164 2.6875 4.76172 2.6875C5.0518 2.6875 5.33 2.80273 5.53512 3.00785C5.74023 3.21297 5.85547 3.49117 5.85547 3.78125V7.60938H9.68359C9.97367 7.60938 10.2519 7.72461 10.457 7.92973C10.6621 8.13485 10.7773 8.41304 10.7773 8.70312C10.7773 8.99321 10.6621 9.2714 10.457 9.47652C10.2519 9.68164 9.97367 9.79688 9.68359 9.79688Z" fill="#7D7D7D"/>
<path id="Vector_2" d="M23.2188 14.7187C22.9287 14.7187 22.6505 14.6035 22.4454 14.3984C22.2402 14.1933 22.125 13.9151 22.125 13.625C22.1258 11.6995 21.4911 9.82752 20.3193 8.29962C19.1475 6.77172 17.5042 5.67329 15.6444 5.1748C13.7845 4.6763 11.8121 4.80561 10.0332 5.54265C8.25439 6.27969 6.76853 7.58326 5.80625 9.25107C5.66092 9.50213 5.42181 9.68518 5.14151 9.75995C4.86122 9.83471 4.56271 9.79507 4.31164 9.64974C4.06058 9.50441 3.87753 9.2653 3.80276 8.985C3.728 8.70471 3.76764 8.40619 3.91297 8.15513C5.11637 6.0707 6.97404 4.44168 9.19777 3.52079C11.4215 2.5999 13.887 2.43861 16.2117 3.06196C18.5365 3.68531 20.5905 5.05844 22.0552 6.96833C23.5199 8.87822 24.3134 11.2181 24.3125 13.625C24.3125 13.9151 24.1973 14.1933 23.9922 14.3984C23.787 14.6035 23.5088 14.7187 23.2188 14.7187ZM21.9883 24.5625C21.6982 24.5625 21.42 24.4472 21.2149 24.2421C21.0098 24.037 20.8945 23.7588 20.8945 23.4687V19.6406H17.0664C16.7763 19.6406 16.4981 19.5254 16.293 19.3202C16.0879 19.1151 15.9727 18.8369 15.9727 18.5468C15.9727 18.2568 16.0879 17.9786 16.293 17.7735C16.4981 17.5683 16.7763 17.4531 17.0664 17.4531H21.9883C22.2784 17.4531 22.5566 17.5683 22.7617 17.7735C22.9668 17.9786 23.082 18.2568 23.082 18.5468V23.4687C23.082 23.7588 22.9668 24.037 22.7617 24.2421C22.5566 24.4472 22.2784 24.5625 21.9883 24.5625Z" fill="#7D7D7D"/>
<path id="Vector_3" d="M13.375 24.5625C10.4751 24.5596 7.69477 23.4063 5.64422 21.3558C3.59367 19.3052 2.4404 16.5249 2.4375 13.625C2.4375 13.3349 2.55273 13.0567 2.75785 12.8516C2.96297 12.6465 3.24117 12.5312 3.53125 12.5312C3.82133 12.5312 4.09953 12.6465 4.30465 12.8516C4.50977 13.0567 4.625 13.3349 4.625 13.625C4.62417 15.5505 5.25889 17.4224 6.43068 18.9504C7.60246 20.4783 9.24579 21.5767 11.1056 22.0752C12.9655 22.5737 14.9379 22.4444 16.7168 21.7073C18.4956 20.9703 19.9815 19.6667 20.9438 17.9989C21.0157 17.8746 21.1115 17.7657 21.2255 17.6784C21.3396 17.591 21.4697 17.527 21.6085 17.49C21.7473 17.453 21.892 17.4437 22.0344 17.4626C22.1768 17.4815 22.314 17.5283 22.4384 17.6002C22.5627 17.6722 22.6716 17.7679 22.7589 17.882C22.8462 17.996 22.9102 18.1262 22.9472 18.265C22.9843 18.4038 22.9936 18.5485 22.9747 18.6909C22.9558 18.8333 22.909 18.9705 22.837 19.0948C21.8753 20.7536 20.4955 22.1314 18.8353 23.0907C17.1751 24.0501 15.2924 24.5575 13.375 24.5625Z" fill="#7D7D7D"/>
</g>
</svg>
