<svg width="74" height="63" viewBox="0 0 74 63" fill="none" xmlns="http://www.w3.org/2000/svg">
<g id="Generic avatar">
<g id="Avatar Placeholder">
<path fill-rule="evenodd" clip-rule="evenodd" d="M47.9504 25.3C47.9504 30.4362 43.048 34.6 37.0004 34.6C30.9529 34.6 26.0504 30.4362 26.0504 25.3C26.0504 20.1638 30.9529 16 37.0004 16C43.048 16 47.9504 20.1638 47.9504 25.3ZM44.3004 25.3C44.3004 28.7242 41.0321 31.5 37.0004 31.5C32.9688 31.5 29.7004 28.7242 29.7004 25.3C29.7004 21.8758 32.9688 19.1 37.0004 19.1C41.0321 19.1 44.3004 21.8758 44.3004 25.3Z" fill="black"/>
<path d="M37.0004 39.25C25.1847 39.25 15.1174 45.184 11.2825 53.4977C12.2167 54.2856 13.2008 55.0308 14.2304 55.7297C17.0861 48.0969 26.0445 42.35 37.0004 42.35C47.9564 42.35 56.9148 48.0969 59.7705 55.7297C60.8001 55.0308 61.7842 54.2856 62.7184 53.4977C58.8835 45.184 48.8162 39.25 37.0004 39.25Z" fill="black"/>
</g>
</g>
</svg>
